<svg id="SvgjsSvg1006" width="1089.1158142089844" height="727.2819213867188" xmlns="http://www.w3.org/2000/svg" version="1.1" xmlns:xlink="http://www.w3.org/1999/xlink" xmlns:svgjs="http://svgjs.com/svgjs"><defs id="SvgjsDefs1007"><marker id="SvgjsMarker1124" markerWidth="16" markerHeight="12" refX="16" refY="6" viewBox="0 0 16 12" orient="auto" markerUnits="userSpaceOnUse" stroke-dasharray="0,0"><path id="SvgjsPath1125" d="M0,2 L14,6 L0,11 L0,2" fill="#323232" stroke="#323232" stroke-width="2"></path></marker><marker id="SvgjsMarker1132" markerWidth="16" markerHeight="12" refX="16" refY="6" viewBox="0 0 16 12" orient="auto" markerUnits="userSpaceOnUse" stroke-dasharray="0,0"><path id="SvgjsPath1133" d="M0,2 L14,6 L0,11 L0,2" fill="#323232" stroke="#323232" stroke-width="2"></path></marker><marker id="SvgjsMarker1156" markerWidth="16" markerHeight="12" refX="16" refY="6" viewBox="0 0 16 12" orient="auto" markerUnits="userSpaceOnUse" stroke-dasharray="0,0"><path id="SvgjsPath1157" d="M0,2 L14,6 L0,11 L0,2" fill="#323232" stroke="#323232" stroke-width="2"></path></marker></defs><g id="SvgjsG1008" transform="translate(607.1271667480469,307.97240447998047)"><path id="SvgjsPath1009" d="M 0 0L 457 0L 457 162.60980879534105L 0 162.60980879534105Z" stroke-dasharray="10,6" stroke="rgba(50,50,50,1)" stroke-width="2" fill="none"></path><g id="SvgjsG1010"><text id="SvgjsText1011" font-family="微软雅黑" text-anchor="middle" font-size="13px" width="437px" fill="#323232" font-weight="400" align="middle" lineHeight="125%" anchor="middle" family="微软雅黑" size="13px" weight="400" font-style="" opacity="1" y="71.67990439767053" transform="rotate(0)"></text></g></g><g id="SvgjsG1012" transform="matrix(6.123233995736766e-17,1,-1,6.123233995736766e-17,454.1271667480469,41.04058837890624)"><path id="SvgjsPath1013" d="M 114.5 0Q 105.5 0 105.5 9L 105.5 92.5Q 105.5 101.5 92.5 101.5Q 105.5 101.5 105.5 110.5L 105.5 194Q 105.5 203 114.5 203" stroke="rgba(50,50,50,1)" stroke-width="2" fill="none"></path><path id="SvgjsPath1014" d="M 0 0L 114.5 0L 114.5 203L 0 203Z" stroke="none" fill="none"></path><g id="SvgjsG1015"><text id="SvgjsText1016" font-family="微软雅黑" text-anchor="end" font-size="13px" width="88px" fill="#323232" font-weight="400" align="middle" lineHeight="125%" anchor="end" family="微软雅黑" size="13px" weight="400" font-style="" opacity="1" y="91.875" transform="rotate(0)"></text></g></g><g id="SvgjsG1017" transform="translate(263.6271667480469,72.79058837890625)"><path id="SvgjsPath1018" d="M 17 0L 161 0C 183.66666666666666 0 183.66666666666666 51 161 51L 17 51C -5.666666666666667 51 -5.666666666666667 0 17 0Z" stroke="rgba(50,50,50,1)" stroke-width="2" fill-opacity="1" fill="#ff9999"></path><g id="SvgjsG1019"><text id="SvgjsText1020" font-family="&quot;Times New Roman&quot;" text-anchor="middle" font-size="24px" width="158px" fill="#323232" font-weight="700" align="middle" lineHeight="125%" anchor="middle" family="&quot;Times New Roman&quot;" size="24px" weight="700" font-style="" opacity="1" y="6" transform="rotate(0)"><tspan id="SvgjsTspan1021" dy="30" x="89"><tspan id="SvgjsTspan1022" style="text-decoration:;">Train</tspan></tspan></text></g></g><g id="SvgjsG1023" transform="translate(175.37716674804688,165.79058837890625)"><path id="SvgjsPath1024" d="M 0 0L 120 0L 120 40L 0 40Z" stroke="none" fill="none"></path><g id="SvgjsG1025"><text id="SvgjsText1026" font-family="&quot;Times New Roman&quot;" text-anchor="middle" font-size="20px" width="120px" fill="#323232" font-weight="700" align="middle" lineHeight="125%" anchor="middle" family="&quot;Times New Roman&quot;" size="20px" weight="700" font-style="" opacity="1" y="-6.5" transform="rotate(0)"><tspan id="SvgjsTspan1027" dy="25" x="60"><tspan id="SvgjsTspan1028" style="text-decoration:;">Round1</tspan></tspan><tspan id="SvgjsTspan1029" dy="25" x="60"><tspan id="SvgjsTspan1030" style="text-decoration:;">训练集</tspan></tspan></text></g></g><g id="SvgjsG1031" transform="translate(292.6271667480469,165.79058837890625)"><path id="SvgjsPath1032" d="M 0 0L 120 0L 120 40L 0 40Z" stroke="none" fill="none"></path><g id="SvgjsG1033"><text id="SvgjsText1034" font-family="&quot;Times New Roman&quot;" text-anchor="middle" font-size="20px" width="120px" fill="#323232" font-weight="700" align="middle" lineHeight="125%" anchor="middle" family="&quot;Times New Roman&quot;" size="20px" weight="700" font-style="" opacity="1" y="-6.5" transform="rotate(0)"><tspan id="SvgjsTspan1035" dy="25" x="60"><tspan id="SvgjsTspan1036" style="text-decoration:;">Round2</tspan></tspan><tspan id="SvgjsTspan1037" dy="25" x="60"><tspan id="SvgjsTspan1038" style="text-decoration:;">训练集</tspan></tspan></text></g></g><g id="SvgjsG1039" transform="translate(405.3771667480469,165.79058837890625)"><path id="SvgjsPath1040" d="M 0 0L 120 0L 120 40L 0 40Z" stroke="none" fill="none"></path><g id="SvgjsG1041"><text id="SvgjsText1042" font-family="&quot;Times New Roman&quot;" text-anchor="middle" font-size="20px" width="120px" fill="#323232" font-weight="700" align="middle" lineHeight="125%" anchor="middle" family="&quot;Times New Roman&quot;" size="20px" weight="700" font-style="" opacity="1" y="-6.5" transform="rotate(0)"><tspan id="SvgjsTspan1043" dy="25" x="60"><tspan id="SvgjsTspan1044" style="text-decoration:;">Round4</tspan></tspan><tspan id="SvgjsTspan1045" dy="25" x="60"><tspan id="SvgjsTspan1046" style="text-decoration:;">训练集</tspan></tspan></text></g></g><g id="SvgjsG1047" transform="matrix(6.123233995736766e-17,1,-1,6.123233995736766e-17,947.3771681010429,25.00918443801953)"><path id="SvgjsPath1048" d="M 126.0628078817734 0Q 117.0628078817734 0 117.0628078817734 9L 117.0628078817734 102.74999999999999Q 117.0628078817734 111.74999999999999 104.0628078817734 111.74999999999999Q 117.0628078817734 111.74999999999999 117.0628078817734 120.74999999999999L 117.0628078817734 214.49999999999997Q 117.0628078817734 223.49999999999997 126.0628078817734 223.49999999999997" stroke="rgba(50,50,50,1)" stroke-width="2" fill="none"></path><path id="SvgjsPath1049" d="M 0 0L 126.0628078817734 0L 126.0628078817734 223.49999999999997L 0 223.49999999999997Z" stroke="none" fill="none"></path><g id="SvgjsG1050"><text id="SvgjsText1051" font-family="微软雅黑" text-anchor="end" font-size="13px" width="100px" fill="#323232" font-weight="400" align="middle" lineHeight="125%" anchor="end" family="微软雅黑" size="13px" weight="400" font-style="" opacity="1" y="102.12499999999999" transform="rotate(0)"></text></g></g><g id="SvgjsG1052" transform="translate(746.6271667480469,69.79058837890625)"><path id="SvgjsPath1053" d="M 17 0L 161 0C 183.66666666666666 0 183.66666666666666 51 161 51L 17 51C -5.666666666666667 51 -5.666666666666667 0 17 0Z" stroke="rgba(50,50,50,1)" stroke-width="2" fill-opacity="1" fill="#ffcc99"></path><g id="SvgjsG1054"><text id="SvgjsText1055" font-family="&quot;Times New Roman&quot;" text-anchor="middle" font-size="23px" width="158px" fill="#323232" font-weight="700" align="middle" lineHeight="125%" anchor="middle" family="&quot;Times New Roman&quot;" size="23px" weight="700" font-style="" opacity="1" y="6.125" transform="rotate(0)"><tspan id="SvgjsTspan1056" dy="28" x="89"><tspan id="SvgjsTspan1057" style="text-decoration:;">Predict</tspan></tspan></text></g></g><g id="SvgjsG1058" transform="translate(633.3771667480469,162.79058837890625)"><path id="SvgjsPath1059" d="M 0 0L 120 0L 120 40L 0 40Z" stroke="none" fill="none"></path><g id="SvgjsG1060"><text id="SvgjsText1061" font-family="&quot;Times New Roman&quot;" text-anchor="middle" font-size="20px" width="120px" fill="#323232" font-weight="700" align="middle" lineHeight="125%" anchor="middle" family="&quot;Times New Roman&quot;" size="20px" weight="700" font-style="" opacity="1" y="-6.5" transform="rotate(0)"><tspan id="SvgjsTspan1062" dy="25" x="60"><tspan id="SvgjsTspan1063" style="text-decoration:;">Round3</tspan></tspan><tspan id="SvgjsTspan1064" dy="25" x="60"><tspan id="SvgjsTspan1065" style="text-decoration:;">全部</tspan></tspan></text></g></g><g id="SvgjsG1066" transform="translate(775.6271667480469,162.79058837890625)"><path id="SvgjsPath1067" d="M 0 0L 120 0L 120 40L 0 40Z" stroke="none" fill="none"></path><g id="SvgjsG1068"><text id="SvgjsText1069" font-family="&quot;Times New Roman&quot;" text-anchor="middle" font-size="20px" width="120px" fill="#323232" font-weight="700" align="middle" lineHeight="125%" anchor="middle" family="&quot;Times New Roman&quot;" size="20px" weight="700" font-style="" opacity="1" y="-6.5" transform="rotate(0)"><tspan id="SvgjsTspan1070" dy="25" x="60"><tspan id="SvgjsTspan1071" style="text-decoration:;">Round1</tspan></tspan><tspan id="SvgjsTspan1072" dy="25" x="60"><tspan id="SvgjsTspan1073" style="text-decoration:;">测试集</tspan></tspan></text></g></g><g id="SvgjsG1074" transform="translate(912.3771667480469,162.79058837890625)"><path id="SvgjsPath1075" d="M 0 0L 120 0L 120 40L 0 40Z" stroke="none" fill="none"></path><g id="SvgjsG1076"><text id="SvgjsText1077" font-family="&quot;Times New Roman&quot;" text-anchor="middle" font-size="20px" width="120px" fill="#323232" font-weight="700" align="middle" lineHeight="125%" anchor="middle" family="&quot;Times New Roman&quot;" size="20px" weight="700" font-style="" opacity="1" y="-6.5" transform="rotate(0)"><tspan id="SvgjsTspan1078" dy="25" x="60"><tspan id="SvgjsTspan1079" style="text-decoration:;">Round2</tspan></tspan><tspan id="SvgjsTspan1080" dy="25" x="60"><tspan id="SvgjsTspan1081" style="text-decoration:;">测试集</tspan></tspan></text></g></g><g id="SvgjsG1082" transform="translate(824.6271667480469,233.06331634521484)"><path id="SvgjsPath1083" d="M 7.260000000000001 0L 14.74 0L 14.74 42.909088134765625L 22 42.909088134765625L 11 53.909088134765625L 0 42.909088134765625L 7.260000000000001 42.909088134765625L 7.260000000000001 0Z" stroke="rgba(50,50,50,1)" stroke-width="2" fill-opacity="1" fill="#ffffff"></path><g id="SvgjsG1084"><text id="SvgjsText1085" font-family="微软雅黑" text-anchor="middle" font-size="13px" width="31px" fill="#323232" font-weight="400" align="middle" lineHeight="125%" anchor="middle" family="微软雅黑" size="13px" weight="400" font-style="" opacity="1" y="14.634089660644534" transform="rotate(0)"></text></g></g><g id="SvgjsG1086" transform="translate(642.1271667480469,392.79058837890625)"><path id="SvgjsPath1087" d="M 18.06060536702474 0L 89.93939463297527 0C 114.02020178900824 0 114.02020178900824 54.18181610107422 89.93939463297527 54.18181610107422L 18.06060536702474 54.18181610107422C -6.020201789008246 54.18181610107422 -6.020201789008246 0 18.06060536702474 0Z" stroke="rgba(50,50,50,1)" stroke-width="2" fill-opacity="1" fill="#99ff99"></path><g id="SvgjsG1088"><text id="SvgjsText1089" font-family="&quot;Times New Roman&quot;" text-anchor="middle" font-size="21px" width="88px" fill="#323232" font-weight="700" align="middle" lineHeight="125%" anchor="middle" family="&quot;Times New Roman&quot;" size="21px" weight="700" font-style="" opacity="1" y="9.46590805053711" transform="rotate(0)"><tspan id="SvgjsTspan1090" dy="26" x="54"><tspan id="SvgjsTspan1091" style="text-decoration:;">Model 1</tspan></tspan></text></g></g><g id="SvgjsG1092" transform="translate(784.3771667480469,392.79058837890625)"><path id="SvgjsPath1093" d="M 18.06060536702474 0L 89.93939463297527 0C 114.02020178900824 0 114.02020178900824 54.18181610107422 89.93939463297527 54.18181610107422L 18.06060536702474 54.18181610107422C -6.020201789008246 54.18181610107422 -6.020201789008246 0 18.06060536702474 0Z" stroke="rgba(50,50,50,1)" stroke-width="2" fill-opacity="1" fill="#66ffb3"></path><g id="SvgjsG1094"><text id="SvgjsText1095" font-family="&quot;Times New Roman&quot;" text-anchor="middle" font-size="21px" width="88px" fill="#323232" font-weight="700" align="middle" lineHeight="125%" anchor="middle" family="&quot;Times New Roman&quot;" size="21px" weight="700" font-style="" opacity="1" y="9.46590805053711" transform="rotate(0)"><tspan id="SvgjsTspan1096" dy="26" x="54"><tspan id="SvgjsTspan1097" style="text-decoration:;">Model 2</tspan></tspan></text></g></g><g id="SvgjsG1098" transform="translate(921.1271667480469,392.79058837890625)"><path id="SvgjsPath1099" d="M 18.06060536702474 0L 89.93939463297527 0C 114.02020178900824 0 114.02020178900824 54.18181610107422 89.93939463297527 54.18181610107422L 18.06060536702474 54.18181610107422C -6.020201789008246 54.18181610107422 -6.020201789008246 0 18.06060536702474 0Z" stroke="rgba(50,50,50,1)" stroke-width="2" fill-opacity="1" fill="#66ffff"></path><g id="SvgjsG1100"><text id="SvgjsText1101" font-family="&quot;Times New Roman&quot;" text-anchor="middle" font-size="21px" width="88px" fill="#323232" font-weight="700" align="middle" lineHeight="125%" anchor="middle" family="&quot;Times New Roman&quot;" size="21px" weight="700" font-style="" opacity="1" y="9.46590805053711" transform="rotate(0)"><tspan id="SvgjsTspan1102" dy="26" x="54"><tspan id="SvgjsTspan1103" style="text-decoration:;">Model 3</tspan></tspan></text></g></g><g id="SvgjsG1104" transform="translate(637.5021667480469,330.79058837890625)"><path id="SvgjsPath1105" d="M 0 0L 120 0L 120 40L 0 40Z" stroke="none" fill="none"></path><g id="SvgjsG1106"><text id="SvgjsText1107" font-family="&quot;Times New Roman&quot;" text-anchor="middle" font-size="20px" width="120px" fill="#323232" font-weight="700" align="middle" lineHeight="125%" anchor="middle" family="&quot;Times New Roman&quot;" size="20px" weight="700" font-style="" opacity="1" y="5.5" transform="rotate(0)"><tspan id="SvgjsTspan1108" dy="25" x="60"><tspan id="SvgjsTspan1109" style="text-decoration:;">Trick 1</tspan></tspan></text></g></g><g id="SvgjsG1110" transform="translate(912.3771667480469,330.79058837890625)"><path id="SvgjsPath1111" d="M 0 0L 120 0L 120 40L 0 40Z" stroke="none" fill="none"></path><g id="SvgjsG1112"><text id="SvgjsText1113" font-family="&quot;Times New Roman&quot;" text-anchor="middle" font-size="20px" width="120px" fill="#323232" font-weight="700" align="middle" lineHeight="125%" anchor="middle" family="&quot;Times New Roman&quot;" size="20px" weight="700" font-style="" opacity="1" y="5.5" transform="rotate(0)"><tspan id="SvgjsTspan1114" dy="25" x="60"><tspan id="SvgjsTspan1115" style="text-decoration:;">Trick 3</tspan></tspan></text></g></g><g id="SvgjsG1116" transform="translate(778.3771667480469,330.79058837890625)"><path id="SvgjsPath1117" d="M 0 0L 120 0L 120 40L 0 40Z" stroke="none" fill="none"></path><g id="SvgjsG1118"><text id="SvgjsText1119" font-family="&quot;Times New Roman&quot;" text-anchor="middle" font-size="20px" width="120px" fill="#323232" font-weight="700" align="middle" lineHeight="125%" anchor="middle" family="&quot;Times New Roman&quot;" size="20px" weight="700" font-style="" opacity="1" y="5.5" transform="rotate(0)"><tspan id="SvgjsTspan1120" dy="25" x="60"><tspan id="SvgjsTspan1121" style="text-decoration:;">Trick 2</tspan></tspan></text></g></g><g id="SvgjsG1122"><path id="SvgjsPath1123" d="M835.6271667480469 470.58221327532146L697.5021667480469 549.8814964294434" stroke="#323232" stroke-width="2" fill="none" marker-end="url(#SvgjsMarker1124)"></path><rect id="SvgjsRect1126" width="44" height="28" x="744.5646667480469" y="496.2318548523824" fill="#ffffff"></rect><text id="SvgjsText1127" font-family="&quot;Times New Roman&quot;" text-anchor="middle" font-size="22px" width="44px" fill="#323232" font-weight="700" align="top" lineHeight="28px" anchor="middle" family="&quot;Times New Roman&quot;" size="22px" weight="700" font-style="" opacity="1" y="491.4818548523824" transform="rotate(0)"><tspan id="SvgjsTspan1128" dy="27" x="766.5646667480469"><tspan id="SvgjsTspan1129" style="text-decoration:;">投票</tspan></tspan></text></g><g id="SvgjsG1130"><path id="SvgjsPath1131" d="M835.6271667480469 470.58221327532146L972.3771667480469 547.3814964294434" stroke="#323232" stroke-width="2" fill="none" marker-end="url(#SvgjsMarker1132)"></path><rect id="SvgjsRect1134" width="96" height="29" x="856.0021667480469" y="494.4818548523824" fill="#ffffff"></rect><text id="SvgjsText1135" font-family="&quot;Times New Roman&quot;" text-anchor="middle" font-size="24px" width="96px" fill="#323232" font-weight="700" align="top" lineHeight="30px" anchor="middle" family="&quot;Times New Roman&quot;" size="24px" weight="700" font-style="" opacity="1" y="489.4818548523824" transform="rotate(0)"><tspan id="SvgjsTspan1136" dy="30" x="904.0021667480469"><tspan id="SvgjsTspan1137" style="text-decoration:;">平均概率</tspan></tspan></text></g><g id="SvgjsG1138" transform="translate(922.3771667480469,547.3814964294434)"><path id="SvgjsPath1139" d="M 0 4Q 0 0 4 0L 96 0Q 100 0 100 4L 100 66Q 100 70 96 70L 4 70Q 0 70 0 66Z" stroke="rgba(50,50,50,1)" stroke-width="2" fill-opacity="1" fill="#ffcce6"></path><g id="SvgjsG1140"><text id="SvgjsText1141" font-family="&quot;Times New Roman&quot;" text-anchor="middle" font-size="17px" width="80px" fill="#323232" font-weight="700" align="middle" lineHeight="125%" anchor="middle" family="&quot;Times New Roman&quot;" size="17px" weight="700" font-style="" opacity="1" y="22.375" transform="rotate(0)"><tspan id="SvgjsTspan1142" dy="21" x="50"><tspan id="SvgjsTspan1143" style="text-decoration:;">BEC_Loss</tspan></tspan></text></g></g><g id="SvgjsG1144" transform="translate(341.6271667480469,233.06331634521484)"><path id="SvgjsPath1145" d="M 7.260000000000001 0L 14.74 0L 14.74 42.909088134765625L 22 42.909088134765625L 11 53.909088134765625L 0 42.909088134765625L 7.260000000000001 42.909088134765625L 7.260000000000001 0Z" stroke="rgba(50,50,50,1)" stroke-width="2" fill-opacity="1" fill="#ffffff"></path><g id="SvgjsG1146"><text id="SvgjsText1147" font-family="微软雅黑" text-anchor="middle" font-size="13px" width="31px" fill="#323232" font-weight="400" align="middle" lineHeight="125%" anchor="middle" family="微软雅黑" size="13px" weight="400" font-style="" opacity="1" y="14.634089660644534" transform="rotate(0)"></text></g></g><g id="SvgjsG1148" transform="translate(270.1271667480469,302.05447925461664)"><path id="SvgjsPath1149" d="M 27.59259153295446 0L 137.40740846704554 0C 174.19753051098482 0 174.19753051098482 82.77777459886339 137.40740846704554 82.77777459886339L 27.59259153295446 82.77777459886339C -9.197530510984821 82.77777459886339 -9.197530510984821 0 27.59259153295446 0Z" stroke="rgba(50,50,50,1)" stroke-width="2" fill-opacity="1" fill="#ffff99"></path><g id="SvgjsG1150"><text id="SvgjsText1151" font-family="&quot;Times New Roman&quot;" text-anchor="middle" font-size="21px" width="145px" fill="#323232" font-weight="700" align="middle" lineHeight="125%" anchor="middle" family="&quot;Times New Roman&quot;" size="21px" weight="700" font-style="" opacity="1" y="23.763887299431694" transform="rotate(0)"><tspan id="SvgjsTspan1152" dy="26" x="82.5"><tspan id="SvgjsTspan1153" style="text-decoration:;">OutPut</tspan></tspan></text></g></g><g id="SvgjsG1154"><path id="SvgjsPath1155" d="M972.3771667480469 617.3814964294434L972.3771667480469 702.3814964294434L163.62716674804688 702.3814964294434L163.62716674804688 98.29058837890625L263.6271667480469 98.29058837890625" stroke="#323232" stroke-width="2" fill="none" marker-end="url(#SvgjsMarker1156)"></path><rect id="SvgjsRect1158" width="110" height="28" x="108.5037841796875" y="386.1347427368164" fill="#ffffff"></rect><text id="SvgjsText1159" font-family="微软雅黑" text-anchor="middle" font-size="22px" width="110px" fill="#323232" font-weight="700" align="top" lineHeight="28px" anchor="middle" family="微软雅黑" size="22px" weight="700" font-style="" opacity="1" y="381.3847427368164" transform="rotate(0)"><tspan id="SvgjsTspan1160" dy="27" x="163.5037841796875"><tspan id="SvgjsTspan1161" style="text-decoration:;">加入训练集</tspan></tspan></text></g><g id="SvgjsG1162" transform="matrix(-1.8369701987210297e-16,-1,1,-1.8369701987210297e-16,540.2516326904297,107.54972076416017)"><path id="SvgjsPath1163" d="M 8.308035507202149 0L 16.867829666137695 0L 16.867829666137695 87.67963790893556L 25.175865173339844 87.67963790893556L 12.587932586669922 100.26757049560548L 0 87.67963790893556L 8.308035507202149 87.67963790893556L 8.308035507202149 0Z" stroke="rgba(50,50,50,1)" stroke-width="2" fill-opacity="1" fill="#ffffff"></path><g id="SvgjsG1164"><text id="SvgjsText1165" font-family="微软雅黑" text-anchor="middle" font-size="13px" width="36px" fill="#323232" font-weight="400" align="middle" lineHeight="125%" anchor="middle" family="微软雅黑" size="13px" weight="400" font-style="" opacity="1" y="35.49540672302247" transform="rotate(0)"></text></g></g><g id="SvgjsG1166" transform="translate(646.5959167480469,551.1314964294434)"><path id="SvgjsPath1167" d="M 0 4Q 0 0 4 0L 96 0Q 100 0 100 4L 100 66Q 100 70 96 70L 4 70Q 0 70 0 66Z" stroke="rgba(50,50,50,1)" stroke-width="2" fill-opacity="1" fill="#ccccff"></path><g id="SvgjsG1168"><text id="SvgjsText1169" font-family="&quot;Times New Roman&quot;" text-anchor="middle" font-size="17px" width="80px" fill="#323232" font-weight="700" align="middle" lineHeight="125%" anchor="middle" family="&quot;Times New Roman&quot;" size="17px" weight="700" font-style="" opacity="1" y="22.375" transform="rotate(0)"><tspan id="SvgjsTspan1170" dy="21" x="50"><tspan id="SvgjsTspan1171" style="text-decoration:;">处理两次</tspan></tspan></text></g></g><g id="SvgjsG1172" transform="translate(525.0021667480469,107.04058837890625)"><path id="SvgjsPath1173" d="M 0 0L 120 0L 120 40L 0 40Z" stroke="none" fill="none"></path><g id="SvgjsG1174"><text id="SvgjsText1175" font-family="宋体" text-anchor="middle" font-size="25px" width="120px" fill="#323232" font-weight="700" align="middle" lineHeight="125%" anchor="middle" family="宋体" size="25px" weight="700" font-style="" opacity="1" y="-0.625" transform="rotate(0)"><tspan id="SvgjsTspan1176" dy="31" x="60"><tspan id="SvgjsTspan1177" style="text-decoration:;">①</tspan></tspan></text></g></g><g id="SvgjsG1178" transform="translate(336.2521667480469,235.79058837890625)"><path id="SvgjsPath1179" d="M 0 0L 120 0L 120 40L 0 40Z" stroke="none" fill="none"></path><g id="SvgjsG1180"><text id="SvgjsText1181" font-family="宋体" text-anchor="middle" font-size="25px" width="120px" fill="#323232" font-weight="700" align="middle" lineHeight="125%" anchor="middle" family="宋体" size="25px" weight="700" font-style="" opacity="1" y="-0.625" transform="rotate(0)"><tspan id="SvgjsTspan1182" dy="31" x="60"><tspan id="SvgjsTspan1183" style="text-decoration:;">④</tspan></tspan></text></g></g><g id="SvgjsG1184" transform="translate(830.4709167480469,235.16558837890625)"><path id="SvgjsPath1185" d="M 0 0L 120 0L 120 40L 0 40Z" stroke="none" fill="none"></path><g id="SvgjsG1186"><text id="SvgjsText1187" font-family="宋体" text-anchor="middle" font-size="25px" width="120px" fill="#323232" font-weight="700" align="middle" lineHeight="125%" anchor="middle" family="宋体" size="25px" weight="700" font-style="" opacity="1" y="-0.625" transform="rotate(0)"><tspan id="SvgjsTspan1188" dy="31" x="60"><tspan id="SvgjsTspan1189" style="text-decoration:;">②</tspan></tspan></text></g></g><g id="SvgjsG1190" transform="translate(25.002166748046875,381.1551702221235)"><path id="SvgjsPath1191" d="M 0 0L 120 0L 120 40L 0 40Z" stroke="none" fill="none"></path><g id="SvgjsG1192"><text id="SvgjsText1193" font-family="宋体" text-anchor="middle" font-size="25px" width="120px" fill="#323232" font-weight="700" align="middle" lineHeight="125%" anchor="middle" family="宋体" size="25px" weight="700" font-style="" opacity="1" y="-0.625" transform="rotate(0)"><tspan id="SvgjsTspan1194" dy="31" x="60"><tspan id="SvgjsTspan1195" style="text-decoration:;">③</tspan></tspan></text></g></g><g id="SvgjsG1196"><path id="SvgjsPath1197" d="M646.5959167480469 586.1314964294434L560.2516403198242 586.1314964294434L560.2516403198242 700.2164524793625" stroke="#323232" stroke-width="2" fill="none"></path><rect id="SvgjsRect1198" width="88" height="28" x="516.2516403198242" y="640.5824700593948" fill="#ffffff"></rect><text id="SvgjsText1199" font-family="微软雅黑" text-anchor="middle" font-size="22px" width="88px" fill="#323232" font-weight="700" align="top" lineHeight="28px" anchor="middle" family="微软雅黑" size="22px" weight="700" font-style="" opacity="1" y="635.8324700593948" transform="rotate(0)"><tspan id="SvgjsTspan1200" dy="27" x="560.2516403198242"><tspan id="SvgjsTspan1201" style="text-decoration:;">全部加入</tspan></tspan></text></g><g id="SvgjsG1202"><path id="SvgjsPath1203" d="M746.5959167480469 586.1314964294434L836.0017623901367 586.1314964294434L836.0017623901367 701.4664524793625" stroke="#323232" stroke-width="2" fill="none"></path><rect id="SvgjsRect1204" width="198" height="28" x="736.5037841796875" y="641.1347427368164" fill="#ffffff"></rect><text id="SvgjsText1205" font-family="微软雅黑" text-anchor="middle" font-size="22px" width="198px" fill="#323232" font-weight="700" align="top" lineHeight="28px" anchor="middle" family="微软雅黑" size="22px" weight="700" font-style="" opacity="1" y="636.3847427368164" transform="rotate(0)"><tspan id="SvgjsTspan1206" dy="27" x="835.5037841796875"><tspan id="SvgjsTspan1207" style="text-decoration:;">按原始数据分布加入</tspan></tspan></text></g></svg>