<svg id="SvgjsSvg1006" width="1071.9935302734375" height="577.5010833740234" xmlns="http://www.w3.org/2000/svg" version="1.1" xmlns:xlink="http://www.w3.org/1999/xlink" xmlns:svgjs="http://svgjs.com/svgjs"><defs id="SvgjsDefs1007"><marker id="SvgjsMarker1038" markerWidth="16" markerHeight="12" refX="16" refY="6" viewBox="0 0 16 12" orient="auto" markerUnits="userSpaceOnUse" stroke-dasharray="0,0"><path id="SvgjsPath1039" d="M0,2 L14,6 L0,11 L0,2" fill="#323232" stroke="#323232" stroke-width="2"></path></marker><marker id="SvgjsMarker1042" markerWidth="16" markerHeight="12" refX="16" refY="6" viewBox="0 0 16 12" orient="auto" markerUnits="userSpaceOnUse" stroke-dasharray="0,0"><path id="SvgjsPath1043" d="M0,2 L14,6 L0,11 L0,2" fill="#323232" stroke="#323232" stroke-width="2"></path></marker><marker id="SvgjsMarker1046" markerWidth="16" markerHeight="12" refX="16" refY="6" viewBox="0 0 16 12" orient="auto" markerUnits="userSpaceOnUse" stroke-dasharray="0,0"><path id="SvgjsPath1047" d="M0,2 L14,6 L0,11 L0,2" fill="#323232" stroke="#323232" stroke-width="2"></path></marker><marker id="SvgjsMarker1050" markerWidth="16" markerHeight="12" refX="16" refY="6" viewBox="0 0 16 12" orient="auto" markerUnits="userSpaceOnUse" stroke-dasharray="0,0"><path id="SvgjsPath1051" d="M0,2 L14,6 L0,11 L0,2" fill="#323232" stroke="#323232" stroke-width="2"></path></marker><marker id="SvgjsMarker1066" markerWidth="16" markerHeight="12" refX="16" refY="6" viewBox="0 0 16 12" orient="auto" markerUnits="userSpaceOnUse" stroke-dasharray="0,0"><path id="SvgjsPath1067" d="M0,2 L14,6 L0,11 L0,2" fill="#323232" stroke="#323232" stroke-width="2"></path></marker><marker id="SvgjsMarker1070" markerWidth="16" markerHeight="12" refX="16" refY="6" viewBox="0 0 16 12" orient="auto" markerUnits="userSpaceOnUse" stroke-dasharray="0,0"><path id="SvgjsPath1071" d="M0,2 L14,6 L0,11 L0,2" fill="#323232" stroke="#323232" stroke-width="2"></path></marker><marker id="SvgjsMarker1088" markerWidth="16" markerHeight="12" refX="16" refY="6" viewBox="0 0 16 12" orient="auto" markerUnits="userSpaceOnUse" stroke-dasharray="0,0"><path id="SvgjsPath1089" d="M0,2 L14,6 L0,11 L0,2" fill="#323232" stroke="#323232" stroke-width="2"></path></marker><marker id="SvgjsMarker1092" markerWidth="16" markerHeight="12" refX="16" refY="6" viewBox="0 0 16 12" orient="auto" markerUnits="userSpaceOnUse" stroke-dasharray="0,0"><path id="SvgjsPath1093" d="M0,2 L14,6 L0,11 L0,2" fill="#323232" stroke="#323232" stroke-width="2"></path></marker><marker id="SvgjsMarker1110" markerWidth="16" markerHeight="12" refX="16" refY="6" viewBox="0 0 16 12" orient="auto" markerUnits="userSpaceOnUse" stroke-dasharray="0,0"><path id="SvgjsPath1111" d="M0,2 L14,6 L0,11 L0,2" fill="#323232" stroke="#323232" stroke-width="2"></path></marker><marker id="SvgjsMarker1126" markerWidth="16" markerHeight="12" refX="16" refY="6" viewBox="0 0 16 12" orient="auto" markerUnits="userSpaceOnUse" stroke-dasharray="0,0"><path id="SvgjsPath1127" d="M0,2 L14,6 L0,11 L0,2" fill="#323232" stroke="#323232" stroke-width="2"></path></marker><marker id="SvgjsMarker1130" markerWidth="16" markerHeight="12" refX="16" refY="6" viewBox="0 0 16 12" orient="auto" markerUnits="userSpaceOnUse" stroke-dasharray="0,0"><path id="SvgjsPath1131" d="M0,2 L14,6 L0,11 L0,2" fill="#323232" stroke="#323232" stroke-width="2"></path></marker><marker id="SvgjsMarker1134" markerWidth="16" markerHeight="12" refX="16" refY="6" viewBox="0 0 16 12" orient="auto" markerUnits="userSpaceOnUse" stroke-dasharray="0,0"><path id="SvgjsPath1135" d="M0,2 L14,6 L0,11 L0,2" fill="#323232" stroke="#323232" stroke-width="2"></path></marker><marker id="SvgjsMarker1144" markerWidth="16" markerHeight="12" refX="16" refY="6" viewBox="0 0 16 12" orient="auto" markerUnits="userSpaceOnUse" stroke-dasharray="0,0"><path id="SvgjsPath1145" d="M0,2 L14,6 L0,11 L0,2" fill="#323232" stroke="#323232" stroke-width="2"></path></marker><marker id="SvgjsMarker1148" markerWidth="16" markerHeight="12" refX="16" refY="6" viewBox="0 0 16 12" orient="auto" markerUnits="userSpaceOnUse" stroke-dasharray="0,0"><path id="SvgjsPath1149" d="M0,2 L14,6 L0,11 L0,2" fill="#323232" stroke="#323232" stroke-width="2"></path></marker></defs><g id="SvgjsG1008" transform="translate(547.9734725952148,116.00487327575684)"><path id="SvgjsPath1009" d="M 0 0L 444 0L 444 370L 0 370Z" stroke-dasharray="10,6" stroke="rgba(50,50,50,1)" stroke-width="2" fill="none"></path><g id="SvgjsG1010"><text id="SvgjsText1011" font-family="微软雅黑" text-anchor="middle" font-size="13px" width="424px" fill="#323232" font-weight="400" align="middle" lineHeight="125%" anchor="middle" family="微软雅黑" size="13px" weight="400" font-style="" opacity="1" y="175.375" transform="rotate(0)"><tspan id="SvgjsTspan1012" dy="16" x="222"><tspan id="SvgjsTspan1013" style="text-decoration:;font-style: normal;">N</tspan></tspan></text></g></g><g id="SvgjsG1014" transform="translate(85.97347259521484,116.0762996673584)"><path id="SvgjsPath1015" d="M 0 0L 444 0L 444 370L 0 370Z" stroke-dasharray="10,6" stroke="rgba(50,50,50,1)" stroke-width="2" fill="none"></path><g id="SvgjsG1016"><text id="SvgjsText1017" font-family="微软雅黑" text-anchor="middle" font-size="13px" width="424px" fill="#323232" font-weight="400" align="middle" lineHeight="125%" anchor="middle" family="微软雅黑" size="13px" weight="400" font-style="" opacity="1" y="175.375" transform="rotate(0)"></text></g></g><g id="SvgjsG1018" transform="translate(180.38040161132812,136.00487327575684)"><path id="SvgjsPath1019" d="M 16.666666666666668 0L 83.33333333333333 0C 105.55555555555556 0 105.55555555555556 50 83.33333333333333 50L 16.666666666666668 50C -5.555555555555556 50 -5.555555555555556 0 16.666666666666668 0Z" stroke="rgba(50,50,50,1)" stroke-width="2" fill-opacity="1" fill="#ffb366"></path><g id="SvgjsG1020"><text id="SvgjsText1021" font-family="&quot;Times New Roman&quot;" text-anchor="middle" font-size="22px" width="80px" fill="#323232" font-weight="700" align="middle" lineHeight="125%" anchor="middle" family="&quot;Times New Roman&quot;" size="22px" weight="700" font-style="italic" opacity="1" y="6.75" transform="rotate(0)"><tspan id="SvgjsTspan1022" dy="27" x="50"><tspan id="SvgjsTspan1023" style="text-decoration:;">Avg</tspan></tspan></text></g></g><g id="SvgjsG1024" transform="translate(190.38040161132812,273.00487327575684)"><path id="SvgjsPath1025" d="M 0 0L 80 0L 80 56L 0 56Z" stroke="rgba(50,50,50,1)" stroke-width="2" fill-opacity="1" fill="#66b2ff"></path><g id="SvgjsG1026"><text id="SvgjsText1027" font-family="&quot;Times New Roman&quot;" text-anchor="middle" font-size="24px" width="60px" fill="#323232" font-weight="700" align="middle" lineHeight="125%" anchor="middle" family="&quot;Times New Roman&quot;" size="24px" weight="700" font-style="italic" opacity="1" y="8.5" transform="rotate(0)"><tspan id="SvgjsTspan1028" dy="30" x="40"><tspan id="SvgjsTspan1029" style="text-decoration:;">x</tspan></tspan></text></g></g><g id="SvgjsG1030" transform="translate(364.0037841796875,281.50487327575684)"><path id="SvgjsPath1031" d="M 0 19.5C 0 -6.5 39 -6.5 39 19.5C 39 45.5 0 45.5 0 19.5Z" stroke="rgba(255,102,102,1)" stroke-width="2" fill-opacity="1" fill="#ffcccc"></path><g id="SvgjsG1032"><text id="SvgjsText1033" font-family="微软雅黑" text-anchor="middle" font-size="13px" width="19px" fill="#323232" font-weight="400" align="middle" lineHeight="125%" anchor="middle" family="微软雅黑" size="13px" weight="400" font-style="" opacity="1" y="9.875" transform="rotate(0)"></text></g></g><g id="SvgjsG1034"><path id="SvgjsPath1035" d="M364.0037841796875 301.00487327575684L403.0037841796875 301.00487327575684" stroke="#ff6666" stroke-width="2" fill="none"></path></g><g id="SvgjsG1036"><path id="SvgjsPath1037" d="M25.0037841796875 301.00487327575684L107.5037841796875 301.00487327575684L107.5037841796875 301.00487327575684L190.38040161132812 301.00487327575684" stroke="#323232" stroke-width="2" fill="none" marker-end="url(#SvgjsMarker1038)"></path></g><g id="SvgjsG1040"><path id="SvgjsPath1041" d="M230.38040161132812 273.00487327575684L230.38040161132812 229.06980895996094L230.38040161132812 229.06980895996094L230.38040161132812 186.00487327575684" stroke="#323232" stroke-width="2" fill="none" marker-end="url(#SvgjsMarker1042)"></path></g><g id="SvgjsG1044"><path id="SvgjsPath1045" d="M280.3804016113281 161.00487327575684L383.5037841796875 161.00487327575684L383.5037841796875 281.50487327575684" stroke="#323232" stroke-width="2" fill="none" marker-end="url(#SvgjsMarker1046)"></path></g><g id="SvgjsG1048"><path id="SvgjsPath1049" d="M270.3804016113281 301.00487327575684L364.0037841796875 301.00487327575684" stroke="#323232" stroke-width="2" fill="none" marker-end="url(#SvgjsMarker1050)"></path></g><g id="SvgjsG1052" transform="translate(180.38040161132812,412.00487327575684)"><path id="SvgjsPath1053" d="M 16.666666666666668 0L 83.33333333333333 0C 105.55555555555556 0 105.55555555555556 50 83.33333333333333 50L 16.666666666666668 50C -5.555555555555556 50 -5.555555555555556 0 16.666666666666668 0Z" stroke="rgba(50,50,50,1)" stroke-width="2" fill-opacity="1" fill="#ffb366"></path><g id="SvgjsG1054"><text id="SvgjsText1055" font-family="&quot;Times New Roman&quot;" text-anchor="middle" font-size="22px" width="80px" fill="#323232" font-weight="700" align="middle" lineHeight="125%" anchor="middle" family="&quot;Times New Roman&quot;" size="22px" weight="700" font-style="italic" opacity="1" y="6.75" transform="rotate(0)"><tspan id="SvgjsTspan1056" dy="27" x="50"><tspan id="SvgjsTspan1057" style="text-decoration:;">Std</tspan></tspan></text></g></g><g id="SvgjsG1058" transform="matrix(0.6427876096865393,-0.7660444431189781,0.7660444431189781,0.6427876096865393,468.9081765816205,303.4083910644326)"><path id="SvgjsPath1059" d="M 0 19.5C 0 -6.5 39 -6.5 39 19.5C 39 45.5 0 45.5 0 19.5Z" stroke="rgba(255,102,102,1)" stroke-width="2" fill-opacity="1" fill="#ffcccc"></path><g id="SvgjsG1060"><text id="SvgjsText1061" font-family="微软雅黑" text-anchor="middle" font-size="13px" width="19px" fill="#323232" font-weight="400" align="middle" lineHeight="125%" anchor="middle" family="微软雅黑" size="13px" weight="400" font-style="" opacity="1" y="9.875" transform="rotate(0)"></text></g></g><g id="SvgjsG1062"><path id="SvgjsPath1063" d="M480.96942579079996 315.507675600781L506.03814256857504 285.6319423191409" stroke="#ff6666" stroke-width="2" fill="none"></path></g><g id="SvgjsG1064"><path id="SvgjsPath1065" d="M403.0037841796875 301.00487327575684L476.8804016113281 300.6984260742026" stroke="#323232" stroke-width="2" fill="none" marker-end="url(#SvgjsMarker1066)"></path></g><g id="SvgjsG1068"><path id="SvgjsPath1069" d="M280.3804016113281 437.00487327575684L497.3594570783273 437.00487327575684L497.3594570783273 320.50487327575684" stroke="#323232" stroke-width="2" fill="none" marker-end="url(#SvgjsMarker1070)"></path></g><g id="SvgjsG1072" transform="matrix(0.6427876096865393,-0.7660444431189781,0.7660444431189781,0.6427876096865393,582.9081460640424,303.4083910644326)"><path id="SvgjsPath1073" d="M 0 19.5C 0 -6.5 39 -6.5 39 19.5C 39 45.5 0 45.5 0 19.5Z" stroke="rgba(255,102,102,1)" stroke-width="2" fill-opacity="1" fill="#ffcccc"></path><g id="SvgjsG1074"><text id="SvgjsText1075" font-family="微软雅黑" text-anchor="middle" font-size="13px" width="19px" fill="#323232" font-weight="400" align="middle" lineHeight="125%" anchor="middle" family="微软雅黑" size="13px" weight="400" font-style="" opacity="1" y="9.875" transform="rotate(0)"></text></g></g><g id="SvgjsG1076"><path id="SvgjsPath1077" d="M596.9694257908 315.507675600781L622.038142568575 285.6319423191409" stroke="#ff6666" stroke-width="2" fill="none"></path></g><g id="SvgjsG1078"><path id="SvgjsPath1079" d="M594.5659175388674 288.0354505710734L624.4416508205076 313.1041673488485" stroke="#ff6666" stroke-width="2" fill="none"></path></g><g id="SvgjsG1080" transform="translate(560.3804016113281,412.00487327575684)"><path id="SvgjsPath1081" d="M 16.666666666666668 0L 83.33333333333333 0C 105.55555555555556 0 105.55555555555556 50 83.33333333333333 50L 16.666666666666668 50C -5.555555555555556 50 -5.555555555555556 0 16.666666666666668 0Z" stroke="rgba(50,50,50,1)" stroke-width="2" fill-opacity="1" fill="#ffb366"></path><g id="SvgjsG1082"><text id="SvgjsText1083" font-family="&quot;Times New Roman&quot;" text-anchor="middle" font-size="25px" width="80px" fill="#323232" font-weight="700" align="middle" lineHeight="125%" anchor="middle" family="&quot;Times New Roman&quot;" size="25px" weight="700" font-style="italic" opacity="1" y="4.375" transform="rotate(0)"><tspan id="SvgjsTspan1084" dy="31" x="50"><tspan id="SvgjsTspan1085" style="text-decoration:;">γ_n</tspan></tspan></text></g></g><g id="SvgjsG1086"><path id="SvgjsPath1087" d="M610.3804016113281 412.00487327575684L609.7932458685805 320.50487327575684" stroke="#323232" stroke-width="2" fill="none" marker-end="url(#SvgjsMarker1088)"></path></g><g id="SvgjsG1090"><path id="SvgjsPath1091" d="M515.8804016113281 299.7434060475139L590.8804016113281 300.1366323874222" stroke="#323232" stroke-width="2" fill="none" marker-end="url(#SvgjsMarker1092)"></path></g><g id="SvgjsG1094" transform="translate(725.8804016113281,281.50487327575684)"><path id="SvgjsPath1095" d="M 0 19.5C 0 -6.5 39 -6.5 39 19.5C 39 45.5 0 45.5 0 19.5Z" stroke="rgba(255,102,102,1)" stroke-width="2" fill-opacity="1" fill="#ffcccc"></path><g id="SvgjsG1096"><text id="SvgjsText1097" font-family="微软雅黑" text-anchor="middle" font-size="13px" width="19px" fill="#323232" font-weight="400" align="middle" lineHeight="125%" anchor="middle" family="微软雅黑" size="13px" weight="400" font-style="" opacity="1" y="9.875" transform="rotate(0)"></text></g></g><g id="SvgjsG1098"><path id="SvgjsPath1099" d="M725.8804016113281 301.0048732757568L764.8804016113281 301.00487327575684" stroke="#ff6666" stroke-width="2" fill="none"></path></g><g id="SvgjsG1100"><path id="SvgjsPath1101" d="M745.3804016113281 281.50487327575684L745.3804016113281 320.50487327575684" stroke="#ff6666" stroke-width="2" fill="none"></path></g><g id="SvgjsG1102" transform="translate(695.3804016113281,412.00487327575684)"><path id="SvgjsPath1103" d="M 16.666666666666668 0L 83.33333333333333 0C 105.55555555555556 0 105.55555555555556 50 83.33333333333333 50L 16.666666666666668 50C -5.555555555555556 50 -5.555555555555556 0 16.666666666666668 0Z" stroke="rgba(50,50,50,1)" stroke-width="2" fill-opacity="1" fill="#b3ff66"></path><g id="SvgjsG1104"><text id="SvgjsText1105" font-family="&quot;Times New Roman&quot;" text-anchor="middle" font-size="24px" width="80px" fill="#323232" font-weight="700" align="middle" lineHeight="125%" anchor="middle" family="&quot;Times New Roman&quot;" size="24px" weight="700" font-style="italic" opacity="1" y="5.5" transform="rotate(0)"><tspan id="SvgjsTspan1106" dy="30" x="50"><tspan id="SvgjsTspan1107" style="text-decoration:;">Task_n</tspan></tspan></text></g></g><g id="SvgjsG1108"><path id="SvgjsPath1109" d="M695.3804016113281 437.00487327575684L660.3804016113281 437.00487327575684" stroke="#323232" stroke-width="2" fill="none" marker-end="url(#SvgjsMarker1110)"></path></g><g id="SvgjsG1112" transform="translate(695.3804016113281,136.00487327575684)"><path id="SvgjsPath1113" d="M 16.666666666666668 0L 83.33333333333333 0C 105.55555555555556 0 105.55555555555556 50 83.33333333333333 50L 16.666666666666668 50C -5.555555555555556 50 -5.555555555555556 0 16.666666666666668 0Z" stroke="rgba(50,50,50,1)" stroke-width="2" fill-opacity="1" fill="#ffb366"></path><g id="SvgjsG1114"><text id="SvgjsText1115" font-family="&quot;Times New Roman&quot;" text-anchor="middle" font-size="24px" width="80px" fill="#323232" font-weight="700" align="middle" lineHeight="125%" anchor="middle" family="&quot;Times New Roman&quot;" size="24px" weight="700" font-style="italic" opacity="1" y="5.5" transform="rotate(0)"><tspan id="SvgjsTspan1116" dy="30" x="50"><tspan id="SvgjsTspan1117" style="text-decoration:;">β_n</tspan></tspan></text></g></g><g id="SvgjsG1118" transform="translate(560.3804016113281,136.00487327575684)"><path id="SvgjsPath1119" d="M 16.666666666666668 0L 83.33333333333333 0C 105.55555555555556 0 105.55555555555556 50 83.33333333333333 50L 16.666666666666668 50C -5.555555555555556 50 -5.555555555555556 0 16.666666666666668 0Z" stroke="rgba(50,50,50,1)" stroke-width="2" fill-opacity="1" fill="#b3ff66"></path><g id="SvgjsG1120"><text id="SvgjsText1121" font-family="&quot;Times New Roman&quot;" text-anchor="middle" font-size="21px" width="80px" fill="#323232" font-weight="700" align="middle" lineHeight="125%" anchor="middle" family="&quot;Times New Roman&quot;" size="21px" weight="700" font-style="italic" opacity="1" y="7.375" transform="rotate(0)"><tspan id="SvgjsTspan1122" dy="26" x="50"><tspan id="SvgjsTspan1123" style="text-decoration:;">Task_n</tspan></tspan></text></g></g><g id="SvgjsG1124"><path id="SvgjsPath1125" d="M660.3804016113281 161.00487327575684L695.3804016113281 161.00487327575684" stroke="#323232" stroke-width="2" fill="none" marker-end="url(#SvgjsMarker1126)"></path></g><g id="SvgjsG1128"><path id="SvgjsPath1129" d="M745.3804016113281 186.00487327575684L745.3804016113281 281.50487327575684" stroke="#323232" stroke-width="2" fill="none" marker-end="url(#SvgjsMarker1130)"></path></g><g id="SvgjsG1132"><path id="SvgjsPath1133" d="M629.8804016113281 300.7434060475139L725.8804016113281 301.00487327575684" stroke="#323232" stroke-width="2" fill="none" marker-end="url(#SvgjsMarker1134)"></path></g><g id="SvgjsG1136" transform="translate(838.0037841796875,273.00487327575684)"><path id="SvgjsPath1137" d="M 0 0L 80 0L 80 56L 0 56Z" stroke="rgba(50,50,50,1)" stroke-width="2" fill-opacity="1" fill="#66b2ff"></path><g id="SvgjsG1138"><text id="SvgjsText1139" font-family="&quot;Times New Roman&quot;" text-anchor="middle" font-size="22px" width="60px" fill="#323232" font-weight="700" align="middle" lineHeight="125%" anchor="middle" family="&quot;Times New Roman&quot;" size="22px" weight="700" font-style="italic" opacity="1" y="9.75" transform="rotate(0)"><tspan id="SvgjsTspan1140" dy="27" x="40"><tspan id="SvgjsTspan1141" style="text-decoration:;">x_hat</tspan></tspan></text></g></g><g id="SvgjsG1142"><path id="SvgjsPath1143" d="M764.8804016113281 301.00487327575684L838.0037841796875 301.00487327575684" stroke="#323232" stroke-width="2" fill="none" marker-end="url(#SvgjsMarker1144)"></path></g><g id="SvgjsG1146"><path id="SvgjsPath1147" d="M918.0037841796875 301.00487327575684L1046.9734725952148 301.00487327575684" stroke="#323232" stroke-width="2" fill="none" marker-end="url(#SvgjsMarker1148)"></path></g><g id="SvgjsG1150" transform="translate(203.97347259521484,513.5048732757568)"><path id="SvgjsPath1151" d="M 0 0L 192 0L 192 39L 0 39Z" stroke="none" fill="none"></path><g id="SvgjsG1152"><text id="SvgjsText1153" font-family="&quot;Times New Roman&quot;" text-anchor="middle" font-size="25px" width="192px" fill="#323232" font-weight="700" align="middle" lineHeight="125%" anchor="middle" family="&quot;Times New Roman&quot;" size="25px" weight="700" font-style="" opacity="1" y="-1.125" transform="rotate(0)"><tspan id="SvgjsTspan1154" dy="31" x="96"><tspan id="SvgjsTspan1155" style="text-decoration:;">Traditional LN</tspan></tspan></text></g></g><g id="SvgjsG1156" transform="translate(649.3804016113281,513.5048732757568)"><path id="SvgjsPath1157" d="M 0 0L 192 0L 192 39L 0 39Z" stroke="none" fill="none"></path><g id="SvgjsG1158"><text id="SvgjsText1159" font-family="&quot;Times New Roman&quot;" text-anchor="middle" font-size="25px" width="192px" fill="#323232" font-weight="700" align="middle" lineHeight="125%" anchor="middle" family="&quot;Times New Roman&quot;" size="25px" weight="700" font-style="" opacity="1" y="-1.125" transform="rotate(0)"><tspan id="SvgjsTspan1160" dy="31" x="96"><tspan id="SvgjsTspan1161" style="text-decoration:;">Conditional  LN</tspan></tspan></text></g></g><g id="SvgjsG1162" transform="translate(166.97347259521484,25.004873275756836)"><path id="SvgjsPath1163" d="M 16.666666666666668 0L 83.33333333333333 0C 105.55555555555556 0 105.55555555555556 50 83.33333333333333 50L 16.666666666666668 50C -5.555555555555556 50 -5.555555555555556 0 16.666666666666668 0Z" stroke="rgba(50,50,50,1)" stroke-width="2" fill-opacity="1" fill="#b3ff66"></path><g id="SvgjsG1164"><text id="SvgjsText1165" font-family="黑体" text-anchor="middle" font-size="14px" width="80px" fill="#323232" font-weight="700" align="middle" lineHeight="125%" anchor="middle" family="黑体" size="14px" weight="700" font-style="" opacity="1" y="14.75" transform="rotate(0)"><tspan id="SvgjsTspan1166" dy="17" x="50"><tspan id="SvgjsTspan1167" style="text-decoration:;">短短匹配A类</tspan></tspan></text></g></g><g id="SvgjsG1168" transform="translate(31.973472595214844,30.004873275756836)"><path id="SvgjsPath1169" d="M 0 0L 120 0L 120 40L 0 40Z" stroke="none" fill="none"></path><g id="SvgjsG1170"><text id="SvgjsText1171" font-family="&quot;Times New Roman&quot;" text-anchor="middle" font-size="30px" width="120px" fill="#323232" font-weight="700" align="middle" lineHeight="125%" anchor="middle" family="&quot;Times New Roman&quot;" size="30px" weight="700" font-style="" opacity="1" y="-4.25" transform="rotate(0)"><tspan id="SvgjsTspan1172" dy="37" x="60"><tspan id="SvgjsTspan1173" style="text-decoration:;">Task</tspan></tspan></text></g></g><g id="SvgjsG1174" transform="translate(303.0037841796875,25.004873275756836)"><path id="SvgjsPath1175" d="M 16.666666666666668 0L 83.33333333333333 0C 105.55555555555556 0 105.55555555555556 50 83.33333333333333 50L 16.666666666666668 50C -5.555555555555556 50 -5.555555555555556 0 16.666666666666668 0Z" stroke="rgba(50,50,50,1)" stroke-width="2" fill-opacity="1" fill="#b3ff66"></path><g id="SvgjsG1176"><text id="SvgjsText1177" font-family="黑体" text-anchor="middle" font-size="14px" width="80px" fill="#323232" font-weight="700" align="middle" lineHeight="125%" anchor="middle" family="黑体" size="14px" weight="700" font-style="" opacity="1" y="14.75" transform="rotate(0)"><tspan id="SvgjsTspan1178" dy="17" x="50"><tspan id="SvgjsTspan1179" style="text-decoration:;">短短匹配B类</tspan></tspan></text></g></g><g id="SvgjsG1180" transform="translate(438.3804016113281,25.004873275756836)"><path id="SvgjsPath1181" d="M 16.666666666666668 0L 83.33333333333333 0C 105.55555555555556 0 105.55555555555556 50 83.33333333333333 50L 16.666666666666668 50C -5.555555555555556 50 -5.555555555555556 0 16.666666666666668 0Z" stroke="rgba(50,50,50,1)" stroke-width="2" fill-opacity="1" fill="#b3ff66"></path><g id="SvgjsG1182"><text id="SvgjsText1183" font-family="黑体" text-anchor="middle" font-size="14px" width="80px" fill="#323232" font-weight="700" align="middle" lineHeight="125%" anchor="middle" family="黑体" size="14px" weight="700" font-style="" opacity="1" y="14.75" transform="rotate(0)"><tspan id="SvgjsTspan1184" dy="17" x="50"><tspan id="SvgjsTspan1185" style="text-decoration:;">短长匹配A类</tspan></tspan></text></g></g><g id="SvgjsG1186" transform="translate(579.3804016113281,25.004873275756836)"><path id="SvgjsPath1187" d="M 16.666666666666668 0L 83.33333333333333 0C 105.55555555555556 0 105.55555555555556 50 83.33333333333333 50L 16.666666666666668 50C -5.555555555555556 50 -5.555555555555556 0 16.666666666666668 0Z" stroke="rgba(50,50,50,1)" stroke-width="2" fill-opacity="1" fill="#b3ff66"></path><g id="SvgjsG1188"><text id="SvgjsText1189" font-family="黑体" text-anchor="middle" font-size="14px" width="80px" fill="#323232" font-weight="700" align="middle" lineHeight="125%" anchor="middle" family="黑体" size="14px" weight="700" font-style="" opacity="1" y="14.75" transform="rotate(0)"><tspan id="SvgjsTspan1190" dy="17" x="50"><tspan id="SvgjsTspan1191" style="text-decoration:;">短长匹配B类</tspan></tspan></text></g></g><g id="SvgjsG1192" transform="translate(716.3804016113281,25.004873275756836)"><path id="SvgjsPath1193" d="M 16.666666666666668 0L 83.33333333333333 0C 105.55555555555556 0 105.55555555555556 50 83.33333333333333 50L 16.666666666666668 50C -5.555555555555556 50 -5.555555555555556 0 16.666666666666668 0Z" stroke="rgba(50,50,50,1)" stroke-width="2" fill-opacity="1" fill="#b3ff66"></path><g id="SvgjsG1194"><text id="SvgjsText1195" font-family="黑体" text-anchor="middle" font-size="14px" width="80px" fill="#323232" font-weight="700" align="middle" lineHeight="125%" anchor="middle" family="黑体" size="14px" weight="700" font-style="" opacity="1" y="14.75" transform="rotate(0)"><tspan id="SvgjsTspan1196" dy="17" x="50"><tspan id="SvgjsTspan1197" style="text-decoration:;">长长匹配A类</tspan></tspan></text></g></g><g id="SvgjsG1198" transform="translate(848.0037841796875,25.004873275756836)"><path id="SvgjsPath1199" d="M 16.666666666666668 0L 83.33333333333333 0C 105.55555555555556 0 105.55555555555556 50 83.33333333333333 50L 16.666666666666668 50C -5.555555555555556 50 -5.555555555555556 0 16.666666666666668 0Z" stroke="rgba(50,50,50,1)" stroke-width="2" fill-opacity="1" fill="#b3ff66"></path><g id="SvgjsG1200"><text id="SvgjsText1201" font-family="黑体" text-anchor="middle" font-size="14px" width="80px" fill="#323232" font-weight="700" align="middle" lineHeight="125%" anchor="middle" family="黑体" size="14px" weight="700" font-style="" opacity="1" y="14.75" transform="rotate(0)"><tspan id="SvgjsTspan1202" dy="17" x="50"><tspan id="SvgjsTspan1203" style="text-decoration:;">长长匹配B类</tspan></tspan></text></g></g></svg>