<svg id="SvgjsSvg1082" width="708.9967193603516" height="747.5010681152344" xmlns="http://www.w3.org/2000/svg" version="1.1" xmlns:xlink="http://www.w3.org/1999/xlink" xmlns:svgjs="http://svgjs.com/svgjs"><defs id="SvgjsDefs1083"><marker id="SvgjsMarker1127" markerWidth="16" markerHeight="12" refX="16" refY="6" viewBox="0 0 16 12" orient="auto" markerUnits="userSpaceOnUse" stroke-dasharray="0,0"><path id="SvgjsPath1128" d="M0,2 L14,6 L0,11 L0,2" fill="#323232" stroke="#323232" stroke-width="2"></path></marker></defs><g id="SvgjsG1084" transform="translate(194.00717163085938,25.007843017578125)"><path id="SvgjsPath1085" d="M 25.333333333333332 0L 126.66666666666667 0C 160.44444444444446 0 160.44444444444446 76 126.66666666666667 76L 25.333333333333332 76C -8.444444444444445 76 -8.444444444444445 0 25.333333333333332 0Z" stroke="rgba(50,50,50,1)" stroke-width="2" fill-opacity="1" fill="#ffb366"></path><g id="SvgjsG1086"><text id="SvgjsText1087" font-family="黑体" text-anchor="middle" font-size="24px" width="132px" fill="#323232" font-weight="700" align="middle" lineHeight="125%" anchor="middle" family="黑体" size="24px" weight="700" font-style="" opacity="1" y="18.5" transform="rotate(0)"><tspan id="SvgjsTspan1088" dy="30" x="76"><tspan id="SvgjsTspan1089" style="text-decoration:;">模型选择</tspan></tspan></text></g></g><g id="SvgjsG1090" transform="translate(25.007171630859375,101.00784301757812)"><path id="SvgjsPath1091" d="M 0 0L 120 0L 120 40L 0 40Z" stroke="none" fill="none"></path><g id="SvgjsG1092"><text id="SvgjsText1093" font-family="黑体" text-anchor="middle" font-size="24px" width="120px" fill="#323232" font-weight="700" align="middle" lineHeight="125%" anchor="middle" family="黑体" size="24px" weight="700" font-style="" opacity="1" y="0.5" transform="rotate(0)"></text></g></g><g id="SvgjsG1094" transform="translate(440.0071716308594,43.007843017578125)"><path id="SvgjsPath1095" d="M 0 0L 202 0L 202 40L 0 40Z" stroke="none" fill="none"></path><g id="SvgjsG1096"><text id="SvgjsText1097" font-family="黑体" text-anchor="middle" font-size="22px" width="202px" fill="#323232" font-weight="700" align="middle" lineHeight="125%" anchor="middle" family="黑体" size="22px" weight="700" font-style="" opacity="1" y="1.75" transform="rotate(0)"><tspan id="SvgjsTspan1098" dy="27" x="101"><tspan id="SvgjsTspan1099" style="text-decoration:;">Bert为BaseLine</tspan></tspan></text></g></g><g id="SvgjsG1100" transform="translate(296.8773592273542,173.36965942382812)"><path id="SvgjsPath1101" d="M 94.12981240350517 0Q 85.12981240350517 0 85.12981240350517 9L 85.12981240350517 68.63818359375Q 85.12981240350517 77.63818359375 72.12981240350517 77.63818359375Q 85.12981240350517 77.63818359375 85.12981240350517 86.63818359375L 85.12981240350517 146.2763671875Q 85.12981240350517 155.2763671875 94.12981240350517 155.2763671875" stroke="rgba(50,50,50,1)" stroke-width="2" fill="none"></path><path id="SvgjsPath1102" d="M 0 0L 94.12981240350517 0L 94.12981240350517 155.2763671875L 0 155.2763671875Z" stroke="none" fill="none"></path><g id="SvgjsG1103"><text id="SvgjsText1104" font-family="微软雅黑" text-anchor="end" font-size="13px" width="68px" fill="#323232" font-weight="400" align="middle" lineHeight="125%" anchor="end" family="微软雅黑" size="13px" weight="400" font-style="" opacity="1" y="68.01318359375" transform="rotate(0)"></text></g></g><g id="SvgjsG1105" transform="translate(197.00717163085938,213.00784301757812)"><path id="SvgjsPath1106" d="M 25.333333333333332 0L 126.66666666666667 0C 160.44444444444446 0 160.44444444444446 76 126.66666666666667 76L 25.333333333333332 76C -8.444444444444445 76 -8.444444444444445 0 25.333333333333332 0Z" stroke="rgba(50,50,50,1)" stroke-width="2" fill-opacity="1" fill="#ff9999"></path><g id="SvgjsG1107"><text id="SvgjsText1108" font-family="黑体" text-anchor="middle" font-size="24px" width="132px" fill="#323232" font-weight="700" align="middle" lineHeight="125%" anchor="middle" family="黑体" size="24px" weight="700" font-style="" opacity="1" y="18.5" transform="rotate(0)"><tspan id="SvgjsTspan1109" dy="30" x="76"><tspan id="SvgjsTspan1110" style="text-decoration:;">数据处理</tspan></tspan></text></g></g><g id="SvgjsG1111" transform="translate(397.0071716308594,195.50784301757812)"><path id="SvgjsPath1112" d="M 0 0L 288 0L 288 111L 0 111Z" stroke="none" fill="none"></path><g id="SvgjsG1113"><text id="SvgjsText1114" font-family="黑体" text-anchor="middle" font-size="22px" width="288px" fill="#323232" font-weight="700" align="middle" lineHeight="125%" anchor="middle" family="黑体" size="22px" weight="700" font-style="" opacity="1" y="-16.25" transform="rotate(0)"><tspan id="SvgjsTspan1115" dy="27" x="144"><tspan id="SvgjsTspan1116" style="text-decoration:;">数据对偶</tspan></tspan><tspan id="SvgjsTspan1117" dy="27" x="144"><tspan id="SvgjsTspan1118" style="text-decoration:;">数据闭包</tspan></tspan><tspan id="SvgjsTspan1119" dy="27" x="144"><tspan id="SvgjsTspan1120" style="text-decoration:;">长文本处理</tspan></tspan><tspan id="SvgjsTspan1121" dy="27" x="144"><tspan id="SvgjsTspan1122" style="text-decoration:;">数据清洗（脏数据再利用） </tspan></tspan><tspan id="SvgjsTspan1123" dy="27" x="144"><tspan id="SvgjsTspan1124" style="text-decoration:;">长度排序</tspan></tspan></text></g></g><g id="SvgjsG1125"><path id="SvgjsPath1126" d="M346.0071716308594 63.007843017578125L393.0071716308594 63.007843017578125L393.0071716308594 63.007843017578125L440.0071716308594 63.007843017578125" stroke="#323232" stroke-width="2" fill="none" marker-end="url(#SvgjsMarker1127)"></path></g><g id="SvgjsG1129" transform="translate(194.00717163085938,605.0078430175781)"><path id="SvgjsPath1130" d="M 25.333333333333332 0L 126.66666666666667 0C 160.44444444444446 0 160.44444444444446 76 126.66666666666667 76L 25.333333333333332 76C -8.444444444444445 76 -8.444444444444445 0 25.333333333333332 0Z" stroke="rgba(50,50,50,1)" stroke-width="2" fill-opacity="1" fill="#b3ff66"></path><g id="SvgjsG1131"><text id="SvgjsText1132" font-family="黑体" text-anchor="middle" font-size="24px" width="132px" fill="#323232" font-weight="700" align="middle" lineHeight="125%" anchor="middle" family="黑体" size="24px" weight="700" font-style="" opacity="1" y="18.5" transform="rotate(0)"><tspan id="SvgjsTspan1133" dy="30" x="76"><tspan id="SvgjsTspan1134" style="text-decoration:;">训练优化</tspan></tspan></text></g></g><g id="SvgjsG1135" transform="translate(282.0071716308594,563.5078430175781)"><path id="SvgjsPath1136" d="M 112 0Q 103 0 103 9L 103 70.5Q 103 79.5 90 79.5Q 103 79.5 103 88.5L 103 150Q 103 159 112 159" stroke="rgba(50,50,50,1)" stroke-width="2" fill="none"></path><path id="SvgjsPath1137" d="M 0 0L 112 0L 112 159L 0 159Z" stroke="none" fill="none"></path><g id="SvgjsG1138"><text id="SvgjsText1139" font-family="微软雅黑" text-anchor="end" font-size="13px" width="85px" fill="#323232" font-weight="400" align="middle" lineHeight="125%" anchor="end" family="微软雅黑" size="13px" weight="400" font-style="" opacity="1" y="69.875" transform="rotate(0)"></text></g></g><g id="SvgjsG1140" transform="translate(394.0071716308594,587.5078430175781)"><path id="SvgjsPath1141" d="M 0 0L 288 0L 288 111L 0 111Z" stroke="none" fill="none"></path><g id="SvgjsG1142"><text id="SvgjsText1143" font-family="黑体" text-anchor="middle" font-size="22px" width="288px" fill="#323232" font-weight="700" align="middle" lineHeight="125%" anchor="middle" family="黑体" size="22px" weight="700" font-style="" opacity="1" y="10.25" transform="rotate(0)"><tspan id="SvgjsTspan1144" dy="27" x="144"><tspan id="SvgjsTspan1145" style="text-decoration:;">交叉熵+梯度惩罚</tspan></tspan><tspan id="SvgjsTspan1146" dy="27" x="144"><tspan id="SvgjsTspan1147" style="text-decoration:;">优化器：Adam +　LookHead</tspan></tspan><tspan id="SvgjsTspan1148" dy="27" x="144"><tspan id="SvgjsTspan1149" style="text-decoration:;">阈值划分</tspan></tspan></text></g></g><g id="SvgjsG1150" transform="matrix(-1.8369701987210297e-16,-1,1,-1.8369701987210297e-16,259.5071716308594,191.00784301757812)"><path id="SvgjsPath1151" d="M 0 13.5L 13.5 0L 13.5 8.91L 72.99999999999999 8.91L 72.99999999999999 18.09L 13.5 18.09L 13.5 27L 0 13.5Z" stroke="rgba(50,50,50,1)" stroke-width="2" fill-opacity="1" fill="#ffffff"></path><g id="SvgjsG1152"><text id="SvgjsText1153" font-family="微软雅黑" text-anchor="middle" font-size="13px" width="73px" fill="#323232" font-weight="400" align="middle" lineHeight="125%" anchor="middle" family="微软雅黑" size="13px" weight="400" font-style="" opacity="1" y="3.875000000000001" transform="rotate(0)"></text></g></g><g id="SvgjsG1154" transform="matrix(-1.8369701987210297e-16,-1,1,-1.8369701987210297e-16,259.5071716308594,392.5078430175781)"><path id="SvgjsPath1155" d="M 0 13.5L 13.5 0L 13.5 8.91L 72.99999999999999 8.91L 72.99999999999999 18.09L 13.5 18.09L 13.5 27L 0 13.5Z" stroke="rgba(50,50,50,1)" stroke-width="2" fill-opacity="1" fill="#ffffff"></path><g id="SvgjsG1156"><text id="SvgjsText1157" font-family="微软雅黑" text-anchor="middle" font-size="13px" width="73px" fill="#323232" font-weight="400" align="middle" lineHeight="125%" anchor="middle" family="微软雅黑" size="13px" weight="400" font-style="" opacity="1" y="3.875000000000001" transform="rotate(0)"></text></g></g><g id="SvgjsG1158" transform="translate(194.00717163085938,425.0078430175781)"><path id="SvgjsPath1159" d="M 25.333333333333332 0L 126.66666666666667 0C 160.44444444444446 0 160.44444444444446 76 126.66666666666667 76L 25.333333333333332 76C -8.444444444444445 76 -8.444444444444445 0 25.333333333333332 0Z" stroke="rgba(50,50,50,1)" stroke-width="2" fill-opacity="1" fill="#fff176"></path><g id="SvgjsG1160"><text id="SvgjsText1161" font-family="黑体" text-anchor="middle" font-size="24px" width="132px" fill="#323232" font-weight="700" align="middle" lineHeight="125%" anchor="middle" family="黑体" size="24px" weight="700" font-style="" opacity="1" y="18.5" transform="rotate(0)"><tspan id="SvgjsTspan1162" dy="30" x="76"><tspan id="SvgjsTspan1163" style="text-decoration:;">特征工程</tspan></tspan></text></g></g><g id="SvgjsG1164" transform="translate(394.0071716308594,407.5078430175781)"><path id="SvgjsPath1165" d="M 0 0L 288 0L 288 111L 0 111Z" stroke="none" fill="none"></path><g id="SvgjsG1166"><text id="SvgjsText1167" font-family="黑体" text-anchor="middle" font-size="22px" width="288px" fill="#323232" font-weight="700" align="middle" lineHeight="125%" anchor="middle" family="黑体" size="22px" weight="700" font-style="" opacity="1" y="-2.75" transform="rotate(0)"><tspan id="SvgjsTspan1168" dy="27" x="144"><tspan id="SvgjsTspan1169" style="text-decoration:;font-size: inherit;">长文本截断分割</tspan></tspan><tspan id="SvgjsTspan1170" dy="27" x="144"><tspan id="SvgjsTspan1171" style="text-decoration:;">摘要提取</tspan></tspan><tspan id="SvgjsTspan1172" dy="27" x="144"><tspan id="SvgjsTspan1173" style="text-decoration:;">CRF</tspan></tspan><tspan id="SvgjsTspan1174" dy="27" x="144"><tspan id="SvgjsTspan1175" style="text-decoration:;">TF-IDF按权池化</tspan></tspan></text></g></g><g id="SvgjsG1176" transform="matrix(-1.8369701987210297e-16,-1,1,-1.8369701987210297e-16,259.5071716308594,596.5078125)"><path id="SvgjsPath1177" d="M 0 13.5L 13.5 0L 13.5 8.91L 72.99999999999999 8.91L 72.99999999999999 18.09L 13.5 18.09L 13.5 27L 0 13.5Z" stroke="rgba(50,50,50,1)" stroke-width="2" fill-opacity="1" fill="#ffffff"></path><g id="SvgjsG1178"><text id="SvgjsText1179" font-family="微软雅黑" text-anchor="middle" font-size="13px" width="73px" fill="#323232" font-weight="400" align="middle" lineHeight="125%" anchor="middle" family="微软雅黑" size="13px" weight="400" font-style="" opacity="1" y="3.875000000000001" transform="rotate(0)"></text></g></g><g id="SvgjsG1180" transform="translate(307.18289921289045,393.8696594238281)"><path id="SvgjsPath1181" d="M 83.82427241796894 0Q 75.44184517617205 0 75.44184517617205 9L 75.44184517617205 60.13818359375Q 75.44184517617205 69.13818359375 61.82427241796894 69.13818359375Q 75.44184517617205 69.13818359375 75.44184517617205 78.13818359375L 75.44184517617205 129.2763671875Q 75.44184517617205 138.2763671875 83.82427241796894 138.2763671875" stroke="rgba(50,50,50,1)" stroke-width="2" fill="none"></path><path id="SvgjsPath1182" d="M 0 0L 83.82427241796894 0L 83.82427241796894 138.2763671875L 0 138.2763671875Z" stroke="none" fill="none"></path><g id="SvgjsG1183"><text id="SvgjsText1184" font-family="微软雅黑" text-anchor="end" font-size="13px" width="57px" fill="#323232" font-weight="400" align="middle" lineHeight="125%" anchor="end" family="微软雅黑" size="13px" weight="400" font-style="" opacity="1" y="59.51318359375" transform="rotate(0)"></text></g></g></svg>