<svg id="SvgjsSvg1006" width="708.9967193603516" height="543.497802734375" xmlns="http://www.w3.org/2000/svg" version="1.1" xmlns:xlink="http://www.w3.org/1999/xlink" xmlns:svgjs="http://svgjs.com/svgjs"><defs id="SvgjsDefs1007"><marker id="SvgjsMarker1051" markerWidth="16" markerHeight="12" refX="16" refY="6" viewBox="0 0 16 12" orient="auto" markerUnits="userSpaceOnUse" stroke-dasharray="0,0"><path id="SvgjsPath1052" d="M0,2 L14,6 L0,11 L0,2" fill="#323232" stroke="#323232" stroke-width="2"></path></marker></defs><g id="SvgjsG1008" transform="translate(194.00717163085938,25.007850646972656)"><path id="SvgjsPath1009" d="M 25.333333333333332 0L 126.66666666666667 0C 160.44444444444446 0 160.44444444444446 76 126.66666666666667 76L 25.333333333333332 76C -8.444444444444445 76 -8.444444444444445 0 25.333333333333332 0Z" stroke="rgba(50,50,50,1)" stroke-width="2" fill-opacity="1" fill="#ffb366"></path><g id="SvgjsG1010"><text id="SvgjsText1011" font-family="黑体" text-anchor="middle" font-size="24px" width="132px" fill="#323232" font-weight="700" align="middle" lineHeight="125%" anchor="middle" family="黑体" size="24px" weight="700" font-style="" opacity="1" y="18.5" transform="rotate(0)"><tspan id="SvgjsTspan1012" dy="30" x="76"><tspan id="SvgjsTspan1013" style="text-decoration:;">模型选择</tspan></tspan></text></g></g><g id="SvgjsG1014" transform="translate(25.007171630859375,101.00785064697266)"><path id="SvgjsPath1015" d="M 0 0L 120 0L 120 40L 0 40Z" stroke="none" fill="none"></path><g id="SvgjsG1016"><text id="SvgjsText1017" font-family="黑体" text-anchor="middle" font-size="24px" width="120px" fill="#323232" font-weight="700" align="middle" lineHeight="125%" anchor="middle" family="黑体" size="24px" weight="700" font-style="" opacity="1" y="0.5" transform="rotate(0)"></text></g></g><g id="SvgjsG1018" transform="translate(440.0071716308594,43.007850646972656)"><path id="SvgjsPath1019" d="M 0 0L 202 0L 202 40L 0 40Z" stroke="none" fill="none"></path><g id="SvgjsG1020"><text id="SvgjsText1021" font-family="黑体" text-anchor="middle" font-size="22px" width="202px" fill="#323232" font-weight="700" align="middle" lineHeight="125%" anchor="middle" family="黑体" size="22px" weight="700" font-style="" opacity="1" y="1.75" transform="rotate(0)"><tspan id="SvgjsTspan1022" dy="27" x="101"><tspan id="SvgjsTspan1023" style="text-decoration:;">Bert为BaseLine</tspan></tspan></text></g></g><g id="SvgjsG1024" transform="translate(280.0071716308594,171.50785064697266)"><path id="SvgjsPath1025" d="M 112 0Q 103 0 103 9L 103 70.5Q 103 79.5 90 79.5Q 103 79.5 103 88.5L 103 150Q 103 159 112 159" stroke="rgba(50,50,50,1)" stroke-width="2" fill="none"></path><path id="SvgjsPath1026" d="M 0 0L 112 0L 112 159L 0 159Z" stroke="none" fill="none"></path><g id="SvgjsG1027"><text id="SvgjsText1028" font-family="微软雅黑" text-anchor="end" font-size="13px" width="85px" fill="#323232" font-weight="400" align="middle" lineHeight="125%" anchor="end" family="微软雅黑" size="13px" weight="400" font-style="" opacity="1" y="69.875" transform="rotate(0)"></text></g></g><g id="SvgjsG1029" transform="translate(197.00717163085938,213.00785064697266)"><path id="SvgjsPath1030" d="M 25.333333333333332 0L 126.66666666666667 0C 160.44444444444446 0 160.44444444444446 76 126.66666666666667 76L 25.333333333333332 76C -8.444444444444445 76 -8.444444444444445 0 25.333333333333332 0Z" stroke="rgba(50,50,50,1)" stroke-width="2" fill-opacity="1" fill="#ff9999"></path><g id="SvgjsG1031"><text id="SvgjsText1032" font-family="黑体" text-anchor="middle" font-size="24px" width="132px" fill="#323232" font-weight="700" align="middle" lineHeight="125%" anchor="middle" family="黑体" size="24px" weight="700" font-style="" opacity="1" y="18.5" transform="rotate(0)"><tspan id="SvgjsTspan1033" dy="30" x="76"><tspan id="SvgjsTspan1034" style="text-decoration:;">数据处理</tspan></tspan></text></g></g><g id="SvgjsG1035" transform="translate(397.0071716308594,195.50785064697266)"><path id="SvgjsPath1036" d="M 0 0L 288 0L 288 111L 0 111Z" stroke="none" fill="none"></path><g id="SvgjsG1037"><text id="SvgjsText1038" font-family="黑体" text-anchor="middle" font-size="22px" width="288px" fill="#323232" font-weight="700" align="middle" lineHeight="125%" anchor="middle" family="黑体" size="22px" weight="700" font-style="" opacity="1" y="-16.25" transform="rotate(0)"><tspan id="SvgjsTspan1039" dy="27" x="144"><tspan id="SvgjsTspan1040" style="text-decoration:;">数据对偶</tspan></tspan><tspan id="SvgjsTspan1041" dy="27" x="144"><tspan id="SvgjsTspan1042" style="text-decoration:;">数据闭包</tspan></tspan><tspan id="SvgjsTspan1043" dy="27" x="144"><tspan id="SvgjsTspan1044" style="text-decoration:;">长文本处理</tspan></tspan><tspan id="SvgjsTspan1045" dy="27" x="144"><tspan id="SvgjsTspan1046" style="text-decoration:;">数据清洗（脏数据再利用） </tspan></tspan><tspan id="SvgjsTspan1047" dy="27" x="144"><tspan id="SvgjsTspan1048" style="text-decoration:;">长度排序</tspan></tspan></text></g></g><g id="SvgjsG1049"><path id="SvgjsPath1050" d="M346.0071716308594 63.007850646972656L393.0071716308594 63.007850646972656L393.0071716308594 63.007850646972656L440.0071716308594 63.007850646972656" stroke="#323232" stroke-width="2" fill="none" marker-end="url(#SvgjsMarker1051)"></path></g><g id="SvgjsG1053" transform="translate(197.00717163085938,402.00785064697266)"><path id="SvgjsPath1054" d="M 25.333333333333332 0L 126.66666666666667 0C 160.44444444444446 0 160.44444444444446 76 126.66666666666667 76L 25.333333333333332 76C -8.444444444444445 76 -8.444444444444445 0 25.333333333333332 0Z" stroke="rgba(50,50,50,1)" stroke-width="2" fill-opacity="1" fill="#b3ff66"></path><g id="SvgjsG1055"><text id="SvgjsText1056" font-family="黑体" text-anchor="middle" font-size="24px" width="132px" fill="#323232" font-weight="700" align="middle" lineHeight="125%" anchor="middle" family="黑体" size="24px" weight="700" font-style="" opacity="1" y="18.5" transform="rotate(0)"><tspan id="SvgjsTspan1057" dy="30" x="76"><tspan id="SvgjsTspan1058" style="text-decoration:;">训练优化</tspan></tspan></text></g></g><g id="SvgjsG1059" transform="translate(280.0071716308594,360.50785064697266)"><path id="SvgjsPath1060" d="M 112 0Q 103 0 103 9L 103 70.5Q 103 79.5 90 79.5Q 103 79.5 103 88.5L 103 150Q 103 159 112 159" stroke="rgba(50,50,50,1)" stroke-width="2" fill="none"></path><path id="SvgjsPath1061" d="M 0 0L 112 0L 112 159L 0 159Z" stroke="none" fill="none"></path><g id="SvgjsG1062"><text id="SvgjsText1063" font-family="微软雅黑" text-anchor="end" font-size="13px" width="85px" fill="#323232" font-weight="400" align="middle" lineHeight="125%" anchor="end" family="微软雅黑" size="13px" weight="400" font-style="" opacity="1" y="69.875" transform="rotate(0)"></text></g></g><g id="SvgjsG1064" transform="translate(397.0071716308594,384.50785064697266)"><path id="SvgjsPath1065" d="M 0 0L 288 0L 288 111L 0 111Z" stroke="none" fill="none"></path><g id="SvgjsG1066"><text id="SvgjsText1067" font-family="黑体" text-anchor="middle" font-size="22px" width="288px" fill="#323232" font-weight="700" align="middle" lineHeight="125%" anchor="middle" family="黑体" size="22px" weight="700" font-style="" opacity="1" y="10.25" transform="rotate(0)"><tspan id="SvgjsTspan1068" dy="27" x="144"><tspan id="SvgjsTspan1069" style="text-decoration:;">交叉熵+梯度惩罚</tspan></tspan><tspan id="SvgjsTspan1070" dy="27" x="144"><tspan id="SvgjsTspan1071" style="text-decoration:;">优化器：Adam +　LookHead</tspan></tspan><tspan id="SvgjsTspan1072" dy="27" x="144"><tspan id="SvgjsTspan1073" style="text-decoration:;">阈值划分</tspan></tspan></text></g></g><g id="SvgjsG1074" transform="matrix(-1.8369701987210297e-16,-1,1,-1.8369701987210297e-16,259.5071716308594,191.00784301757812)"><path id="SvgjsPath1075" d="M 0 13.5L 13.5 0L 13.5 8.91L 72.99999999999999 8.91L 72.99999999999999 18.09L 13.5 18.09L 13.5 27L 0 13.5Z" stroke="rgba(50,50,50,1)" stroke-width="2" fill-opacity="1" fill="#ffffff"></path><g id="SvgjsG1076"><text id="SvgjsText1077" font-family="微软雅黑" text-anchor="middle" font-size="13px" width="73px" fill="#323232" font-weight="400" align="middle" lineHeight="125%" anchor="middle" family="微软雅黑" size="13px" weight="400" font-style="" opacity="1" y="3.875000000000001" transform="rotate(0)"></text></g></g><g id="SvgjsG1078" transform="matrix(-1.8369701987210297e-16,-1,1,-1.8369701987210297e-16,259.5071716308594,383.5078430175781)"><path id="SvgjsPath1079" d="M 0 13.5L 13.5 0L 13.5 8.91L 72.99999999999999 8.91L 72.99999999999999 18.09L 13.5 18.09L 13.5 27L 0 13.5Z" stroke="rgba(50,50,50,1)" stroke-width="2" fill-opacity="1" fill="#ffffff"></path><g id="SvgjsG1080"><text id="SvgjsText1081" font-family="微软雅黑" text-anchor="middle" font-size="13px" width="73px" fill="#323232" font-weight="400" align="middle" lineHeight="125%" anchor="middle" family="微软雅黑" size="13px" weight="400" font-style="" opacity="1" y="3.875000000000001" transform="rotate(0)"></text></g></g></svg>